<svg width="326" height="114" viewBox="0 0 326 114" fill="none" xmlns="http://www.w3.org/2000/svg">
<path d="M125.183 4.3713L125.614 34.7033L115.425 29.0991L122.548 10.0208L108.197 27.4677L100.879 27.2487L125.183 4.3713ZM101.158 49.7711C101.513 51.6366 101.702 53.4946 101.702 55.3224C101.672 85.307 38.6361 112.693 16.9747 98.3809C-4.68668 84.0759 -7.56429 18.5252 22.0502 3.47252C47.9562 -9.69199 89.5494 16.924 99.504 43.8799C92.8576 53.4871 81.3018 69.2422 64.8896 75.2467C60.5014 76.8478 56.7326 76.6968 54.2628 74.801C52.065 73.1168 51.0378 70.2014 51.287 66.3495C64.9878 57.5354 75.3729 46.2289 76.5889 38.7818C77.042 36.0099 76.2943 33.4193 74.4892 31.4783C72.6312 29.4843 69.8971 28.442 67.163 28.7064C52.9486 30.0583 40.5847 49.756 40.2373 65.1259C34.4141 68.1017 29.7314 69.6727 26.3251 69.8087C24.958 69.8615 23.9837 69.4839 23.3417 68.6304C21.9444 66.78 22.1257 62.6411 23.8402 57.271C25.8643 50.9267 29.248 45.4962 31.9745 41.1307C34.5652 36.9691 36.2796 34.2199 35.5697 32.5659C34.9806 31.1988 33.0319 30.1037 30.8492 29.8922C29.2631 29.7411 25.2375 29.8922 22.171 34.4692C12.6621 48.6684 9.33129 62.2105 13.2587 70.6999C14.875 74.1817 17.6545 76.3796 20.9022 76.727C26.2948 77.3086 33.2434 75.6923 41.0303 72.0518C41.6346 74.227 42.5787 76.1303 43.84 77.7089C45.6149 79.9369 49.1345 81.7496 53.6813 82.452C59.7612 83.3886 67.6766 82.3312 75.6599 77.5956C85.8788 71.5382 93.6884 61.5308 98.4391 54.2046C99.4285 52.694 100.335 51.1986 101.158 49.7711ZM34.18 23.0267C34.9126 23.7367 35.8944 24.1898 36.9745 24.3635C37.4579 24.4391 37.9639 24.4542 38.4775 24.4088C40.1542 24.2653 41.7252 23.5025 42.8959 22.279C44.5273 20.5569 45.3958 18.6612 45.3354 16.924C45.2826 15.5494 44.6783 14.3259 43.5303 13.2836C41.3778 11.3274 37.1558 11.9392 34.6633 14.5525C33.4927 15.7836 32.7902 17.3319 32.6845 18.9104C32.5712 20.5343 33.0999 21.9995 34.18 23.0267ZM68.6282 36.2214C68.5225 36.1534 68.3941 36.1081 68.2581 36.0855C67.9711 36.0401 67.6237 36.1006 67.2234 36.2516C65.2748 36.9918 62.5331 39.8165 59.8896 43.7969C57.2462 47.7772 54.9577 52.4977 53.364 57.2559C63.5981 50.2318 69.6101 42.0446 69.5421 38.0567C69.527 37.1957 69.2324 36.5915 68.6282 36.2214Z" fill="white"/>
<path d="M105.712 108.464L99.6172 89.6271H103.363L105.931 98.1769C106.656 100.556 107.276 102.761 107.774 105.05H107.827C108.333 102.814 108.998 100.526 109.753 98.2298L112.495 89.6196H116.158L109.647 108.456H105.712V108.464Z" fill="white"/>
<path d="M121.641 89.6347V97.1799H129.609V89.6347H133.046V108.471H129.609V100.163H121.641V108.464H118.205V89.6272H121.641V89.6347Z" fill="white"/>
<path d="M140.757 103.132L139.133 108.471H135.583L141.618 89.6347H146.006L152.124 108.471H148.438L146.731 103.132H140.757ZM146.15 100.533L144.669 95.896C144.307 94.748 143.997 93.464 143.718 92.3764H143.665C143.386 93.464 143.106 94.7782 142.774 95.896L141.324 100.533H146.15Z" fill="white"/>
<path d="M163.982 89.6347V108.471H160.545V89.6347H163.982Z" fill="white"/>
<path d="M178.453 100.11H171.354V105.647H179.291V108.471H167.917V89.6347H178.876V92.4595H171.361V97.3235H178.461V100.11H178.453Z" fill="white"/>
<path d="M188.098 89.6347H198.967V92.4595H191.535V97.6558H198.468V100.481H191.535V108.471H188.098V89.6347Z" fill="white"/>
<path d="M204.389 102.626C204.473 105.088 206.398 106.145 208.581 106.145C210.175 106.145 211.323 105.919 212.358 105.533L212.864 107.912C211.693 108.388 210.069 108.751 208.113 108.751C203.695 108.751 201.096 106.039 201.096 101.878C201.096 98.1014 203.385 94.5516 207.75 94.5516C212.169 94.5516 213.619 98.1845 213.619 101.175C213.619 101.817 213.566 102.323 213.506 102.626H204.389ZM210.371 100.224C210.401 98.9624 209.843 96.9005 207.546 96.9005C205.424 96.9005 204.525 98.8265 204.389 100.224H210.371Z" fill="white"/>
<path d="M216.376 88.6227H219.842V108.464H216.376V88.6227Z" fill="white"/>
<path d="M223 88.6227H226.466V108.464H223V88.6227Z" fill="white"/>
<path d="M243.12 101.538C243.12 106.538 239.601 108.773 236.134 108.773C232.274 108.773 229.314 106.115 229.314 101.757C229.314 97.2857 232.252 94.544 236.353 94.544C240.409 94.5516 243.12 97.399 243.12 101.538ZM232.864 101.674C232.864 104.302 234.147 106.289 236.247 106.289C238.203 106.289 239.57 104.363 239.57 101.621C239.57 99.4986 238.619 97.0666 236.27 97.0666C233.845 97.0666 232.864 99.4156 232.864 101.674Z" fill="white"/>
<path d="M247.788 94.8537L249.215 101.032C249.525 102.482 249.827 103.97 250.084 105.45H250.137C250.416 103.97 250.862 102.459 251.254 101.062L253.014 94.8612H255.809L257.516 100.896C257.931 102.49 258.301 103.97 258.603 105.45H258.656C258.883 103.97 259.185 102.49 259.547 100.896L261.058 94.8612H264.442L260.167 108.464H256.979L255.356 102.928C254.933 101.5 254.63 100.216 254.321 98.5697H254.268C253.988 100.246 253.626 101.591 253.233 102.928L251.504 108.464H248.286L244.26 94.8537H247.788Z" fill="white"/>
<path d="M266.149 105.307C266.934 105.783 268.414 106.289 269.645 106.289C271.156 106.289 271.828 105.677 271.828 104.778C271.828 103.857 271.269 103.381 269.593 102.792C266.934 101.87 265.816 100.42 265.846 98.8265C265.846 96.4247 267.833 94.5516 270.99 94.5516C272.5 94.5516 273.815 94.9443 274.593 95.3597L273.92 97.7917C273.331 97.4594 272.244 97.0062 271.043 97.0062C269.812 97.0062 269.139 97.5954 269.139 98.4337C269.139 99.3023 269.781 99.7177 271.511 100.337C273.973 101.228 275.114 102.49 275.144 104.499C275.144 106.961 273.218 108.743 269.608 108.743C267.961 108.743 266.481 108.351 265.469 107.792L266.149 105.307Z" fill="white"/>
<path d="M277.969 88.6227H281.435V96.7268H281.488C281.904 96.0848 282.463 95.5561 283.195 95.1634C283.867 94.7706 284.676 94.5516 285.544 94.5516C287.863 94.5516 290.295 96.0923 290.295 100.45V108.471H286.858V100.843C286.858 98.8567 286.133 97.3763 284.23 97.3763C282.886 97.3763 281.942 98.2676 281.579 99.3023C281.466 99.5817 281.435 99.9443 281.435 100.337V108.471H277.969V88.6227Z" fill="white"/>
<path d="M297.055 91.0546C297.055 92.0894 296.299 92.8975 295.098 92.8975C293.95 92.8975 293.195 92.0894 293.195 91.0546C293.195 89.9897 293.981 89.1815 295.121 89.1815C296.299 89.1815 297.024 89.9972 297.055 91.0546ZM293.391 108.464V94.8537H296.858V108.464H293.391Z" fill="white"/>
<path d="M300.544 99.3854C300.544 97.5954 300.491 96.1452 300.431 94.8537H303.452L303.618 96.9534H303.671C304.675 95.4126 306.269 94.5516 308.338 94.5516C311.465 94.5516 314.071 97.2328 314.071 101.485C314.071 106.402 310.967 108.781 307.87 108.781C306.163 108.781 304.743 108.056 304.041 106.961H303.988V114H300.552V99.3854H300.544ZM303.988 102.769C303.988 103.101 304.018 103.411 304.101 103.721C304.434 105.118 305.665 106.122 307.122 106.122C309.305 106.122 310.589 104.302 310.589 101.621C310.589 99.2192 309.418 97.263 307.206 97.263C305.778 97.263 304.464 98.2978 304.132 99.8083C304.048 100.088 303.988 100.397 303.988 100.677V102.769Z" fill="white"/>
<path d="M316.73 105.307C317.515 105.783 318.995 106.289 320.226 106.289C321.737 106.289 322.409 105.677 322.409 104.778C322.409 103.857 321.85 103.381 320.174 102.792C317.515 101.87 316.397 100.42 316.427 98.8265C316.427 96.4247 318.414 94.5516 321.571 94.5516C323.081 94.5516 324.396 94.9443 325.174 95.3597L324.501 97.7917C323.912 97.4594 322.825 97.0062 321.624 97.0062C320.393 97.0062 319.72 97.5954 319.72 98.4337C319.72 99.3023 320.362 99.7177 322.092 100.337C324.554 101.228 325.695 102.49 325.725 104.499C325.725 106.961 323.799 108.743 320.189 108.743C318.542 108.743 317.062 108.351 316.05 107.792L316.73 105.307Z" fill="white"/>
</svg>
