<svg width="121" height="120" viewBox="0 0 121 120" fill="none" xmlns="http://www.w3.org/2000/svg">
<circle cx="60.75" cy="60" r="58.5" stroke="url(#paint0_linear_74_864)" stroke-width="3"/>
<path d="M64.1029 36.4689C65.2823 36.8071 66.6584 37.6808 67.6693 39.1745C68.6522 40.6118 68.8769 42.4155 68.3153 44.5292C67.7536 46.5583 66.3495 47.9956 64.3275 48.6156C64.159 48.672 63.9905 48.7002 63.822 48.7566V59.0432H73.1174C77.386 59.0432 80.8401 62.5097 80.8401 66.7934V72.2891C81.4579 72.43 82.0477 72.6554 82.6093 72.9936C84.182 73.9236 85.1087 75.361 85.2772 77.1647C85.5019 79.2784 84.6032 81.392 83.6203 82.2657C83.1429 82.7166 82.3566 82.6884 81.9073 82.1812C81.458 81.7021 81.486 80.9129 81.9915 80.462C82.3566 80.1238 83.0306 78.8274 82.8621 77.3901C82.7498 76.3755 82.2443 75.5864 81.3456 75.051C81.1771 74.9382 80.9805 74.8537 80.784 74.7973V82.9703C80.784 83.3366 80.6155 83.6748 80.3627 83.9003C80.1381 84.0976 79.8572 84.1821 79.5764 84.1821C79.5202 84.1821 79.436 84.1821 79.3798 84.1539C77.5264 83.8439 73.9318 82.2939 73.7352 78.602C73.6229 76.3192 74.7462 74.1773 76.6839 72.9936C77.2175 72.6554 77.8072 72.43 78.3689 72.2891V66.7653C78.3689 63.8343 75.9818 61.4387 73.0612 61.4387H63.7659V70.6263C63.7659 71.1336 63.457 71.5845 62.9796 71.7536C62.8953 71.7818 61.9686 72.1481 61.0138 72.8809H65.0577C65.2262 72.8809 65.3947 72.9091 65.5632 72.9936C66.9954 73.6418 68.0064 74.9382 68.3153 76.4883C68.6803 78.3483 68.0625 80.3493 66.5742 81.9839C65.3104 83.3648 63.0638 83.9285 60.9857 83.3648C58.7953 82.773 57.2226 81.1102 56.689 78.7992C56.3801 77.5028 56.4082 76.3474 56.661 75.3046H51.0444C51.1568 75.8683 51.241 76.4601 51.2129 77.1083C51.1848 82.6884 47.843 84.1539 46.1019 84.1539C42.4231 84.1539 40.1765 82.0684 40.0641 78.5456C40.008 76.8546 40.4573 75.4737 41.4121 74.4591C42.8162 72.9654 44.7258 72.8809 44.9505 72.8527H46.7759C45.793 72.12 44.8101 71.8945 44.7258 71.8663C44.1642 71.7536 43.771 71.2463 43.771 70.6826V66.7089C43.771 62.4251 47.2252 58.9587 51.4938 58.9587H61.4069V48.7847C59.9466 48.6438 58.5706 48.1365 57.6719 47.3192C55.0602 44.9519 54.8637 41.8236 55.5096 38.639H38.5196C37.8456 38.639 37.312 38.1035 37.312 37.4271C37.312 36.7508 37.8456 36.2153 38.5196 36.2153H55.5096C55.5096 36.2998 62.2775 35.9616 64.1029 36.4689ZM45.0067 75.3328C44.6135 75.361 42.395 75.5864 42.5073 78.5174C42.5354 79.3347 42.6196 81.7866 46.158 81.7866C46.2704 81.7866 48.854 81.7302 48.8821 77.1365C48.8821 76.4601 48.7978 75.8682 48.6293 75.361H45.0067V75.3328ZM78.4531 74.8537C78.3127 74.91 78.1442 74.9946 78.0038 75.0791C76.8243 75.8119 76.1503 77.1083 76.2065 78.4892C76.2907 80.0393 77.4421 80.8848 78.425 81.3357V74.8537H78.4531ZM59.2165 75.3328C58.9076 76.1501 58.7952 77.1365 59.0761 78.2638C59.5254 80.2084 60.8733 80.8284 61.6316 81.0257C62.8391 81.3357 64.1871 81.0539 64.833 80.3493C65.7878 79.3065 66.2091 78.0665 65.9844 76.9674C65.844 76.2346 65.4228 75.671 64.8049 75.3046H59.2165V75.3328ZM46.2142 69.8653C47.4779 70.3445 49.0506 71.3308 50.0896 72.9373H57.7843C58.7952 71.4718 60.2275 70.4572 61.435 69.8653V61.4669H51.5218C48.6012 61.4669 46.2142 63.8624 46.2142 66.7934V69.8653ZM58.0089 38.7235C57.5877 40.2172 56.7733 42.9228 59.3288 45.6283C59.722 46.051 60.5645 46.3329 61.435 46.4738V38.7517H58.0089V38.7235ZM63.8501 39.1463V46.2483C64.9734 45.8537 65.7036 45.0928 66.0125 43.9091C66.3776 42.5282 66.2933 41.4009 65.7036 40.5554C65.2542 39.879 64.5241 39.4281 63.8501 39.1463Z" fill="#E33C96"/>
<defs>
<linearGradient id="paint0_linear_74_864" x1="60.75" y1="0" x2="60.75" y2="120" gradientUnits="userSpaceOnUse">
<stop stop-color="#8A2583"/>
<stop offset="1" stop-color="#E33C96"/>
</linearGradient>
</defs>
</svg>
