<svg width="121" height="120" viewBox="0 0 121 120" fill="none" xmlns="http://www.w3.org/2000/svg">
<circle cx="60.8335" cy="60" r="58.5" stroke="url(#paint0_linear_74_892)" stroke-width="3"/>
<path d="M89.2478 84.6001H31.8628C31.1267 84.6001 30.5244 83.9968 30.5244 83.2595C30.5244 82.5221 31.1267 81.9188 31.8628 81.9188H87.9094V53.598L63.8847 38.516L39.6592 53.598V62.8484H51.4038C52.14 62.8484 52.7423 63.4517 52.7423 64.189V66.6357H58.3971V60.3347H53.8465C53.1103 60.3347 52.508 59.7314 52.508 58.9941C52.508 58.2567 53.1103 57.6534 53.8465 57.6534H57.9956V50.8162C57.9956 50.0789 58.5979 49.4756 59.334 49.4756H67.9669C68.703 49.4756 69.3053 50.0789 69.3053 50.8162V58.1227H76.2986C77.0347 58.1227 77.637 58.7259 77.637 59.4633V67.9763C77.637 68.7136 77.0347 69.3169 76.2986 69.3169H69.3053V76.3887C69.3053 77.1261 68.703 77.7294 67.9669 77.7294H59.6352C58.899 77.7294 58.2967 77.1261 58.2967 76.3887V69.3169H51.3035C50.5673 69.3169 49.965 68.7136 49.965 67.9763V65.5296H38.2204C37.4842 65.5296 36.8819 64.9264 36.8819 64.189V52.8607C36.8819 52.3915 37.1162 51.9558 37.5177 51.7212L63.1151 35.8012C63.5501 35.5331 64.0854 35.5331 64.5204 35.8012L89.8836 51.7212C90.2851 51.9558 90.5193 52.3915 90.5193 52.8607V83.2595C90.5862 83.9968 89.984 84.6001 89.2478 84.6001ZM61.007 75.0481H66.6619V69.3169H61.007V75.0481ZM69.3387 66.6357H74.9936V60.8039H69.3387V66.6357ZM61.007 66.6357H66.6619V60.8039H61.007V66.6357ZM60.7059 58.1562H66.6619V52.1904H60.7059V58.1562Z" fill="#E23C96"/>
<defs>
<linearGradient id="paint0_linear_74_892" x1="60.8335" y1="0" x2="60.8335" y2="120" gradientUnits="userSpaceOnUse">
<stop stop-color="#8A2583"/>
<stop offset="1" stop-color="#E33C96"/>
</linearGradient>
</defs>
</svg>
