<svg width="121" height="120" viewBox="0 0 121 120" fill="none" xmlns="http://www.w3.org/2000/svg">
<circle cx="60.5" cy="60" r="58.5" stroke="url(#paint0_linear_74_902)" stroke-width="3"/>
<path d="M82.0039 60.8964C83.5955 59.8135 84.6565 57.9326 84.6565 55.8238C84.6565 52.4611 81.976 49.7254 78.6811 49.7254C75.3863 49.7254 72.7057 52.4611 72.7057 55.8238C72.7057 57.9041 73.7389 59.7565 75.3025 60.8394H73.5713C71.9239 59.158 69.9414 57.8472 67.9589 57.2487C69.9693 55.8523 71.2817 53.487 71.2817 50.8083C71.2817 46.5052 67.8472 43 63.631 43C59.4147 43 55.9802 46.5052 55.9802 50.8083C55.9802 53.658 57.488 56.1373 59.7218 57.5052C57.9627 58.1891 56.2315 59.3575 54.7237 60.8394H53.4393C55.003 59.728 56.0361 57.9041 56.0361 55.8238C56.0361 52.4611 53.3555 49.7254 50.0607 49.7254C46.7659 49.7254 44.0853 52.4611 44.0853 55.8238C44.0853 58.2461 45.4814 60.3549 47.5198 61.3238C44.8113 62.2073 42.4937 64.2021 41.2651 66.9093C41.0138 67.4793 41.2372 68.1632 41.7957 68.4197C42.3541 68.6762 43.0243 68.4482 43.2756 67.8782C44.5879 65 47.4639 63.1192 50.5912 63.1192H52.7971C51.3172 65.1995 50.3958 67.5363 50.3958 69.7591C50.3958 70.386 50.8984 70.899 51.5127 70.899H75.4701V73.7202H31.967C31.3527 73.7202 30.8501 74.2332 30.8501 74.8601C30.8501 75.487 31.3527 76 31.967 76H76.587C77.2013 76 77.7039 75.487 77.7039 74.8601V70.899H88.7332C89.3475 70.899 89.8501 70.386 89.8501 69.7591C89.8222 65.1425 86.3877 61.3238 82.0039 60.8964ZM78.6811 52.0052C80.7474 52.0052 82.4227 53.715 82.4227 55.8238C82.4227 57.9326 80.7474 59.6425 78.6811 59.6425C76.6149 59.6425 74.9395 57.9326 74.9395 55.8238C74.9395 53.715 76.6149 52.0052 78.6811 52.0052ZM58.242 50.8083C58.242 47.7591 60.6712 45.2798 63.6589 45.2798C66.6466 45.2798 69.0758 47.7591 69.0758 50.8083C69.0758 53.8575 66.6466 56.3368 63.6589 56.3368C60.6712 56.3368 58.242 53.8575 58.242 50.8083ZM62.7933 59.1865H65.6693C67.1213 59.1865 68.6849 59.8135 70.1369 60.8394H58.242C59.7218 59.8135 61.3413 59.1865 62.7933 59.1865ZM46.3191 55.8238C46.3191 53.715 47.9944 52.0052 50.0607 52.0052C52.127 52.0052 53.8023 53.715 53.8023 55.8238C53.8023 57.9326 52.127 59.6425 50.0607 59.6425C48.0224 59.6425 46.3191 57.9326 46.3191 55.8238ZM52.7412 68.6192C53.0763 66.7668 54.1932 64.772 55.6731 63.1192H72.5941C73.9902 64.772 75.0512 66.7383 75.3584 68.6192H52.7412ZM77.6201 68.6192C77.3688 66.7383 76.587 64.8575 75.4142 63.1192H81.1104C84.3215 63.1192 86.9741 65.4845 87.5046 68.6192H77.6201Z" fill="#E33C96"/>
<defs>
<linearGradient id="paint0_linear_74_902" x1="60.5" y1="0" x2="60.5" y2="120" gradientUnits="userSpaceOnUse">
<stop stop-color="#8A2583"/>
<stop offset="1" stop-color="#E33C96"/>
</linearGradient>
</defs>
</svg>
