<svg width="121" height="120" viewBox="0 0 121 120" fill="none" xmlns="http://www.w3.org/2000/svg">
<circle cx="60.167" cy="60" r="58.5" stroke="url(#paint0_linear_74_912)" stroke-width="3"/>
<path d="M76.6978 80.0396C74.1912 80.0396 71.7449 78.7078 70.4765 76.3772L63.7719 64.3309C61.8995 60.9713 63.0169 56.7944 66.2786 54.7968L66.943 54.373L60.9029 52.7083C60.1479 52.4965 59.3929 52.4965 58.6983 52.6478C59.2721 53.8585 60.2083 55.1297 61.7485 56.2799C62.2921 56.6733 62.3827 57.43 61.9901 57.9748C61.5975 58.5196 60.8425 58.6104 60.2989 58.217C58.3962 56.7944 57.2184 55.2508 56.5238 53.7072C55.8292 54.2822 55.3158 55.0692 55.044 55.9772L51.3595 68.2959C51.0877 69.2342 51.0877 70.233 51.3595 71.1107H65.1612C65.6142 71.1107 66.0068 71.3529 66.2182 71.7464C66.4296 72.1398 66.4296 72.5938 66.188 72.9873L65.1612 74.652C63.3794 77.5576 59.7553 78.7986 56.554 77.6484L53.5037 76.5286C51.9333 75.9535 50.6951 74.8941 49.8495 73.5624H36.6216C35.9572 73.5624 35.4136 73.0176 35.4136 72.3517C35.4136 71.6858 35.9572 71.141 36.6216 71.141H48.8831C48.6415 70.0211 48.7019 68.8104 49.0341 67.63L52.7185 55.3113C53.2319 53.6163 54.3493 52.2241 55.7386 51.3161C55.0742 47.7445 56.4936 44.8389 56.5238 44.7784C56.5238 44.7481 56.554 44.7481 56.554 44.7178C59.1513 40.0264 62.6243 39.2395 65.7048 39.0579C70.8087 38.7855 74.7046 41.57 75.6106 46.1706C76.6676 51.5279 75.5502 55.4021 74.1006 58.0353C74.765 58.0051 75.4294 58.0656 76.0938 58.217C78.087 58.671 79.7783 59.9725 80.7749 61.7885L84.55 68.8407C85.4862 70.5659 85.6674 72.5636 85.0634 74.4401C84.4593 76.3167 83.1305 77.83 81.3487 78.6473L79.7481 79.4039C78.7514 79.8277 77.7246 80.0396 76.6978 80.0396ZM59.6647 50.1054C60.2989 50.1054 60.9331 50.1962 61.5673 50.3778L70.2953 52.7991C70.7483 52.9202 71.1107 53.3137 71.1711 53.798C71.2315 54.2822 71.0201 54.7362 70.5973 55.0086L67.547 56.8852C65.4028 58.217 64.678 60.9713 65.886 63.1808L72.5905 75.2271C73.7986 77.376 76.4864 78.2538 78.7212 77.1944L80.3219 76.4378C81.4997 75.893 82.3755 74.8941 82.7681 73.6532C83.1607 72.4122 83.0701 71.1108 82.4359 69.9606L78.6608 62.9084C78.0266 61.7279 76.9092 60.8502 75.5804 60.5475C74.2516 60.2449 72.8623 60.5173 71.7751 61.3042L70.6879 62.0911C70.5973 62.1517 70.5369 62.2122 70.5067 62.2122C69.9631 62.5754 69.2081 62.4544 68.8456 61.9095C68.4832 61.3647 68.6041 60.6081 69.1175 60.2449L69.2685 60.1238C70.1141 59.4882 74.9462 55.3718 73.2247 46.6246C72.5603 43.2045 69.7215 41.2371 65.8256 41.449C63.3793 41.6003 60.7821 42.024 58.6681 45.8377C58.5473 46.0798 57.7318 47.9564 58.0338 50.3172C58.5472 50.1659 59.0908 50.1054 59.6647 50.1054ZM53.0205 73.5019C53.3829 73.7743 53.8058 74.0164 54.2588 74.1677L57.309 75.2876C59.3627 76.0443 61.6881 75.2876 62.9263 73.4716H53.0205V73.5019Z" fill="#E33C96"/>
<defs>
<linearGradient id="paint0_linear_74_912" x1="60.167" y1="0" x2="60.167" y2="120" gradientUnits="userSpaceOnUse">
<stop stop-color="#8A2583"/>
<stop offset="1" stop-color="#E33C96"/>
</linearGradient>
</defs>
</svg>
