<svg width="121" height="120" viewBox="0 0 121 120" fill="none" xmlns="http://www.w3.org/2000/svg">
<circle cx="60.75" cy="60" r="58.5" stroke="url(#paint0_linear_74_923)" stroke-width="3"/>
<path d="M66.7801 83.6274C67.1454 83.6274 67.5107 83.4142 67.6934 83.0943C70.1724 78.5895 69.5722 73.7114 69.5461 73.4982C69.4678 72.9651 69.0242 72.5652 68.5023 72.5652H54.3066C54.1761 72.2454 54.0196 71.8189 53.8369 71.3124H60.8826C61.4567 71.3124 61.9264 70.8326 61.9264 70.2462V63.8754C63.5443 63.6888 64.8751 63.0224 65.8928 61.9295C67.0671 60.6501 67.5368 58.9974 67.7195 57.7179C68.5806 57.9845 69.3896 58.411 70.068 58.9441C69.9637 61.6896 69.6244 66.8076 68.4762 69.5798C68.3458 69.8997 68.3719 70.2995 68.5545 70.5927C68.7372 70.8859 69.0764 71.0725 69.4157 71.0725H73.9562C74.5303 71.0725 75 70.5927 75 70.0063V64.835C75 62.1694 73.9301 59.7437 72.1817 58.0111V57.1048C72.3122 43.537 61.8742 36.1266 61.4306 35.8068C61.0391 35.5402 60.4911 35.5669 60.1258 35.9134C54.959 40.7381 51.671 46.629 50.1053 53.8794C48.8788 59.5838 49.8444 65.3148 50.9143 69.2066H49.0876V60.4901C49.0876 59.9037 48.6179 59.4239 48.0438 59.4239C47.4697 59.4239 47 59.9037 47 60.4901V70.2462C47 70.8326 47.4697 71.3124 48.0438 71.3124H51.5666C52.1146 72.9384 52.5582 73.9514 52.6365 74.0846C52.8192 74.4578 53.1845 74.6977 53.576 74.6977H67.4846C67.5107 76.0572 67.4063 78.6694 66.2321 81.2551C65.0056 80.7753 62.657 79.5491 61.4306 77.0701C61.2479 76.6969 60.8826 76.4837 60.4911 76.4837C60.0997 76.4837 59.7344 76.7236 59.5517 77.0967C59.5517 77.0967 59.0037 78.2963 58.1165 79.4425C57.1249 80.7753 56.1333 81.495 55.3243 81.495C54.7502 81.495 54.2805 81.9748 54.2805 82.5612C54.2805 83.1476 54.7502 83.6274 55.3243 83.6274C57.6207 83.6274 59.4995 81.2817 60.5433 79.6024C62.8658 82.6145 66.3103 83.5475 66.493 83.5741C66.5974 83.6274 66.7018 83.6274 66.7801 83.6274ZM59.8127 69.1799H53.1323C52.0624 65.5281 50.9664 59.8504 52.1668 54.306C53.576 47.8019 56.4464 42.4707 60.9348 38.0725C63.1007 39.8585 69.9115 46.3092 70.0941 56.4384C69.3635 56.0386 68.6067 55.7187 67.7717 55.5321C67.6412 54.3059 66.7279 49.4013 60.8565 49.4013C55.5592 49.4013 53.7586 53.8795 53.5499 56.2518C53.5238 56.545 53.6281 56.8383 53.8108 57.0782C53.9935 57.3181 54.2805 57.4247 54.5937 57.4247H65.6319C65.5014 58.3843 65.1622 59.5838 64.3271 60.4901C63.5182 61.3698 62.3439 61.8229 60.8565 61.8229C60.2824 61.8229 59.8127 62.3027 59.8127 62.8892V69.1799ZM72.9124 68.94H70.9031C71.5555 66.621 71.8686 63.6888 72.0513 61.3165C72.5993 62.356 72.9385 63.5556 72.9385 64.835V68.94H72.9124ZM60.8565 51.5337C64.5359 51.5337 65.4231 54.0661 65.6319 55.2922H55.8723C56.342 53.8262 57.5946 51.5337 60.8565 51.5337Z" fill="#E33D97"/>
<defs>
<linearGradient id="paint0_linear_74_923" x1="60.75" y1="0" x2="60.75" y2="120" gradientUnits="userSpaceOnUse">
<stop stop-color="#8A2583"/>
<stop offset="1" stop-color="#E33C96"/>
</linearGradient>
</defs>
</svg>
