<svg width="121" height="120" viewBox="0 0 121 120" fill="none" xmlns="http://www.w3.org/2000/svg">
<circle cx="60.25" cy="60" r="58.5" stroke="url(#paint0_linear_74_933)" stroke-width="3"/>
<path d="M65.0203 84H60.0291C59.7795 84 59.53 83.9375 59.3116 83.781L59.2804 83.7497C57.5023 82.5297 56.4416 80.4963 56.4416 78.3378C56.4416 77.6495 57.0032 77.0864 57.6895 77.0864H62.3687C63.055 77.0864 63.6166 77.6495 63.6166 78.3378C63.6166 79.026 63.055 79.5891 62.3687 79.5891H59.1244C59.374 80.3399 59.8107 80.9968 60.4346 81.4974H64.6148C65.5507 80.7153 66.1122 79.5578 66.1122 78.3378V75.9603H62.9615C62.4311 75.9603 61.932 75.6161 61.776 75.0843L61.0585 72.8632H42.2478C41.5615 72.8632 41 72.3001 41 71.6119C41 70.9237 41.5615 70.3606 42.2478 70.3606H60.2787L59.3428 67.42H55.5058C54.9131 67.42 54.414 67.0133 54.2892 66.4502C53.8212 64.2917 52.511 62.5398 50.9825 60.5377C49.1108 58.035 46.9895 55.1883 46.2096 50.9651C45.5857 47.5865 46.6463 43.8951 49.1732 40.5165C51.232 37.7636 54.1332 35.4799 56.5976 34.6979C61.6513 33.0711 71.4778 33.7593 76.1882 42.5499C80.0564 49.7137 76.9369 55.0319 74.1917 59.7243C73.9734 60.0684 73.7862 60.4438 73.5678 60.788C72.0705 63.4157 70.6979 66.5753 69.7932 68.7651C68.7638 71.2678 66.3617 72.8945 63.6789 72.8945L63.8661 73.4889H67.36C68.0463 73.4889 68.6078 74.052 68.6078 74.7402V78.369C68.6078 80.5276 67.5472 82.561 65.769 83.781L65.7066 83.8123C65.5195 83.9062 65.2699 84 65.0203 84ZM62.8991 70.3606H63.6789C65.3635 70.3606 66.8609 69.3595 67.4848 67.7954C68.3894 65.543 69.8244 62.2583 71.3842 59.5366C71.6025 59.1925 71.7897 58.8171 72.0081 58.473C74.6597 53.937 77.1553 49.6825 73.9422 43.7387C69.4501 35.3861 60.1851 36.1682 57.2839 37.1067C53.6653 38.2641 47.4886 44.3956 48.6116 50.5584C49.2667 54.1872 51.1385 56.6586 52.9166 59.0674C54.3204 60.9444 55.693 62.7588 56.3793 64.9799H58.4693L54.8195 53.5303C54.6635 53.0923 54.7883 52.5918 55.1314 52.279C55.4746 51.9348 55.9425 51.841 56.3793 51.9661L62.2752 53.8431L68.2335 51.9661C68.6702 51.841 69.1693 51.9348 69.4813 52.279C69.8244 52.5918 69.918 53.0923 69.7932 53.5303L65.8314 66.6066C65.6754 67.1384 65.1763 67.4825 64.646 67.4825H61.8696L62.8991 70.3606ZM61.1521 64.9173H63.8037L66.7985 55.0006L62.7431 56.2832C62.4935 56.3458 62.244 56.3458 61.9944 56.2832L58.0014 55.0006L61.1521 64.9173Z" fill="#E33C96"/>
<defs>
<linearGradient id="paint0_linear_74_933" x1="60.25" y1="0" x2="60.25" y2="120" gradientUnits="userSpaceOnUse">
<stop stop-color="#8A2583"/>
<stop offset="1" stop-color="#E33C96"/>
</linearGradient>
</defs>
</svg>
