<svg width="121" height="120" viewBox="0 0 121 120" fill="none" xmlns="http://www.w3.org/2000/svg">
<circle cx="60.5" cy="60" r="58.5" stroke="url(#paint0_linear_74_839)" stroke-width="3"/>
<path d="M76.6299 84H38.0888C37.4831 84 37.0035 83.5099 37.0035 82.8909C37.0035 82.2719 37.4831 81.7818 38.0888 81.7818H75.5446V49.5411C75.5446 48.9221 76.0241 48.432 76.6299 48.432H77.6647L70.3452 38.863L62.7228 47.8388H65.0449C65.6506 47.8388 66.1302 48.3289 66.1302 48.9479V78.9447C66.1302 79.5637 65.6506 80.0537 65.0449 80.0537H49.9263C49.3205 80.0537 48.841 79.5637 48.841 78.9447V74.9468H46.8723V78.6867C46.8723 79.3058 46.3927 79.7958 45.787 79.7958H35.0853C34.4796 79.7958 34 79.3058 34 78.6867V73.8377C34 73.2187 34.4796 72.7286 35.0853 72.7286H42.5058C43.1115 72.7286 43.5911 73.2187 43.5911 73.8377C43.5911 74.4567 43.1115 74.9468 42.5058 74.9468H36.1706V77.5776H44.7016V73.8377C44.7016 73.2187 45.1812 72.7286 45.787 72.7286H48.841V66.5384C48.841 65.9194 49.3205 65.4293 49.9263 65.4293H61.2084C61.8142 65.4293 62.2937 65.9194 62.2937 66.5384V73.8377C62.2937 74.4567 61.8142 74.9468 61.2084 74.9468H50.9863V77.8356H63.9596V50.0312H60.3503C59.9212 50.0312 59.5426 49.7732 59.3659 49.3864C59.1892 48.9995 59.265 48.5352 59.5426 48.1999L69.588 36.3869C69.7899 36.129 70.0928 36 70.4462 36C70.7743 36 71.0772 36.1548 71.2791 36.4127L80.7692 48.8447C81.0216 49.18 81.0721 49.6185 80.8954 50.0054C80.7187 50.3923 80.3401 50.6244 79.9111 50.6244H77.7404V82.8651C77.7152 83.4841 77.2356 84 76.6299 84ZM51.0116 72.7286H60.1484V67.6475H51.0116V72.7286Z" fill="#E23C96"/>
<defs>
<linearGradient id="paint0_linear_74_839" x1="60.5" y1="0" x2="60.5" y2="120" gradientUnits="userSpaceOnUse">
<stop stop-color="#8A2583"/>
<stop offset="1" stop-color="#E33C96"/>
</linearGradient>
</defs>
</svg>
