<svg width="121" height="120" viewBox="0 0 121 120" fill="none" xmlns="http://www.w3.org/2000/svg">
<circle cx="60.167" cy="60" r="58.5" stroke="url(#paint0_linear_74_851)" stroke-width="3"/>
<path d="M65.1763 74C63.1726 74 61.1689 73.3403 59.5171 72.0758L56.5386 69.7394C54.8327 68.4199 52.6936 67.6778 50.5545 67.6778H32.3313C31.6815 67.6778 31.167 67.1555 31.167 66.4958C31.167 65.8361 31.6815 65.3138 32.3313 65.3138H50.5545C53.2081 65.3138 55.8617 66.2209 57.9737 67.8702L60.9522 70.2067C62.8477 71.691 65.42 72.0758 67.6404 71.1962L76.3052 67.8152C76.3323 67.8152 76.3864 67.7877 76.3864 67.7053C76.3864 67.6228 76.3593 67.5953 76.3323 67.5678L62.6581 55.8304C60.7356 56.7925 58.4882 56.93 56.4574 56.1603L55.1306 55.638C54.7515 55.5006 54.4537 55.1432 54.3995 54.7309C54.3183 54.3186 54.4807 53.9063 54.8057 53.6314L55.6721 52.8892H44.5704C43.9205 52.8892 43.406 52.367 43.406 51.7073C43.406 51.0475 43.9205 50.5253 44.5704 50.5253H58.4882L61.575 47.9139C63.8766 45.9623 67.0447 45.4675 69.8066 46.5945L80.9896 51.13C81.9915 51.5423 83.0475 51.7347 84.1035 51.7347H88.0027C88.6525 51.7347 89.167 52.257 89.167 52.9167V65.2038C89.167 65.8636 88.6525 66.3858 88.0027 66.3858H82.1539C81.8832 66.3858 81.5853 66.2759 81.3957 66.0835L66.7468 52.8892H59.3547L57.8925 54.1262C59.3547 54.511 60.9252 54.2636 62.1978 53.4115C62.6311 53.1366 63.1997 53.1641 63.5788 53.494L77.8757 65.7536C78.5526 66.3309 78.8505 67.2105 78.7151 68.0901C78.5797 68.9697 77.984 69.6844 77.1717 70.0142L68.5069 73.3953C67.3967 73.8076 66.2865 74 65.1763 74ZM82.5872 64.0219H86.8383V54.0987H84.1035C82.7225 54.0987 81.3958 53.8513 80.1231 53.329L68.9401 48.7935C66.9634 47.9964 64.6889 48.3537 63.0372 49.7281L62.0895 50.5253H67.1259C67.3967 50.5253 67.6945 50.6352 67.8841 50.8276L82.5872 64.0219Z" fill="#E33C96"/>
<defs>
<linearGradient id="paint0_linear_74_851" x1="60.167" y1="0" x2="60.167" y2="120" gradientUnits="userSpaceOnUse">
<stop stop-color="#8A2583"/>
<stop offset="1" stop-color="#E33C96"/>
</linearGradient>
</defs>
</svg>
