<svg width="121" height="120" viewBox="0 0 121 120" fill="none" xmlns="http://www.w3.org/2000/svg">
<circle cx="60.25" cy="60" r="58.5" stroke="url(#paint0_linear_74_876)" stroke-width="3"/>
<path d="M74.554 78.2139C74.2555 78.2139 73.9569 78.0813 73.7398 77.8692L64.3497 68.696L57.3478 75.0589C55.5295 76.7027 53.1684 77.6041 50.6987 77.6041H35.935C35.2837 77.6041 34.7681 77.1003 34.7681 76.4641C34.7681 75.8278 35.2837 75.324 35.935 75.324H50.6987C52.5985 75.324 54.3896 74.6347 55.7737 73.3621L62.7213 67.0522L58.7048 63.1284L48.1205 68.0066C47.5506 68.2718 46.845 68.0331 46.5736 67.4499C46.3022 66.8931 46.5464 66.2038 47.1435 65.9387L58.4877 60.7158C58.9219 60.5037 59.4647 60.6097 59.8175 60.9279L64.4583 65.4615L67.6607 62.5451L67.0093 60.0795L66.7108 59.8409L61.7443 60.9809C61.3644 61.0604 60.9844 60.9809 60.6859 60.7158L53.3584 54.1672H51.2686C50.8073 54.1672 50.4002 53.9021 50.2102 53.5044L47.9848 48.8383C47.7948 48.4406 47.8491 47.9899 48.1205 47.6452L50.6716 44.5168C50.9973 44.0926 51.5943 43.96 52.0828 44.1986L58.7862 47.3271C59.329 47.5657 59.5732 48.1755 59.3832 48.7057L58.6776 50.7471L66.0323 56.4208L65.4353 54.2468C64.5668 51.7546 64.1597 46.2135 68.8548 43.6153C74.4726 40.5134 79.6833 43.5093 79.9004 43.6419C80.2261 43.8274 80.4432 44.1721 80.4703 44.5698C80.4975 44.9675 80.3075 45.3121 80.009 45.5507L75.2596 48.9708L78.4892 52.4174L82.4244 49.4215C82.7229 49.1829 83.1028 49.1299 83.4828 49.2359C83.8356 49.342 84.1341 49.6071 84.2427 49.9518C84.3241 50.2169 86.4409 56.5533 81.5559 59.8143C78.5706 61.8028 74.8525 61.6437 71.9215 61.0074L82.2344 68.9611C82.4786 69.1467 82.6415 69.4648 82.6686 69.783C82.6957 70.1011 82.5872 70.4193 82.3429 70.6579L75.3953 77.7897C75.1782 78.0813 74.8797 78.2139 74.554 78.2139ZM66.0595 67.1848L74.5269 75.4831L79.7647 70.1011L69.9675 62.5451L70.0218 62.7572C70.1303 63.1549 69.9946 63.6056 69.6961 63.8707L66.0595 67.1848ZM68.692 57.7199C70.4017 58.4357 76.3723 60.5832 80.1989 58.038C82.3972 56.5798 82.5329 54.0612 82.3429 52.4174L79.032 54.9361C78.5435 55.3073 77.865 55.2542 77.4579 54.8035L72.6271 49.6601C72.41 49.4215 72.3015 49.1034 72.3286 48.7852C72.3557 48.4671 72.5186 48.1755 72.79 47.9899L76.9151 45.0205C75.2596 44.5433 72.6543 44.2516 69.9404 45.7363C65.7338 48.0429 67.5793 53.6635 67.6064 53.743L68.692 57.7199ZM51.9471 51.9932H53.7654C54.064 51.9932 54.3354 52.0993 54.5525 52.2849L61.7443 58.7273L64.3226 58.1441L56.5608 52.1523C56.1808 51.8607 56.018 51.3569 56.1808 50.9062L56.805 49.0504L51.8657 46.7438L50.3459 48.5996L51.9471 51.9932Z" fill="#E43D97"/>
<defs>
<linearGradient id="paint0_linear_74_876" x1="60.25" y1="0" x2="60.25" y2="120" gradientUnits="userSpaceOnUse">
<stop stop-color="#8A2583"/>
<stop offset="1" stop-color="#E33C96"/>
</linearGradient>
</defs>
</svg>
